<svg viewBox="0 0 680 380" role="img" xmlns="http://www.w3.org/2000/svg">
<title>Bogotá del cuidado</title>
<desc>Escena de Bogotá con los cerros, casas de colores y personas diversas —incluida una persona en silla de ruedas, una persona cuidadora con un niño y personas mayores— bajo corazones que representan el cuidado.</desc>
<rect x="0" y="0" width="680" height="380" fill="#EFE7F5"/>
<circle cx="566" cy="78" r="46" fill="#F3B7AC"/>
<circle cx="566" cy="78" r="30" fill="#E8705B"/>
<path d="M0 196 L96 120 L176 176 L268 96 L360 168 L452 112 L560 180 L680 128 L680 240 L0 240 Z" fill="#7A4FA0"/>
<path d="M0 222 L120 160 L228 210 L336 150 L452 206 L566 158 L680 206 L680 250 L0 250 Z" fill="#5B2B82"/>
<rect x="0" y="244" width="680" height="136" fill="#DCEBC2"/>
<rect x="0" y="244" width="680" height="14" fill="#8DC63F"/>
<g>
<rect x="44" y="176" width="74" height="80" fill="#B5800A"/>
<polygon points="44,176 81,150 118,176" fill="#8A6307"/>
<rect x="60" y="198" width="18" height="18" fill="#EFE7F5"/>
<rect x="86" y="198" width="18" height="18" fill="#EFE7F5"/>
<rect x="70" y="226" width="22" height="30" fill="#5B2B82"/>
</g>
<g>
<rect x="150" y="158" width="86" height="98" fill="#5B2B82"/>
<polygon points="150,158 193,128 236,158" fill="#43205F"/>
<rect x="166" y="180" width="20" height="20" fill="#F3B7AC"/>
<rect x="200" y="180" width="20" height="20" fill="#F3B7AC"/>
<rect x="166" y="212" width="20" height="20" fill="#F3B7AC"/>
<rect x="194" y="212" width="28" height="44" fill="#8DC63F"/>
</g>
<g>
<rect x="270" y="188" width="68" height="68" fill="#E8705B"/>
<polygon points="270,188 304,164 338,188" fill="#C85440"/>
<rect x="284" y="206" width="16" height="16" fill="#EFE7F5"/>
<rect x="308" y="206" width="16" height="16" fill="#EFE7F5"/>
<rect x="296" y="230" width="20" height="26" fill="#5B2B82"/>
</g>
<g>
<rect x="372" y="166" width="80" height="90" fill="#4F7A12"/>
<polygon points="372,166 412,140 452,166" fill="#3C5E0D"/>
<rect x="388" y="188" width="18" height="18" fill="#EFE7F5"/>
<rect x="418" y="188" width="18" height="18" fill="#EFE7F5"/>
<rect x="404" y="220" width="22" height="36" fill="#B5800A"/>
</g>
<g>
<rect x="486" y="184" width="70" height="72" fill="#2E5AAC"/>
<polygon points="486,184 521,160 556,184" fill="#234584"/>
<rect x="500" y="202" width="16" height="16" fill="#F3B7AC"/>
<rect x="526" y="202" width="16" height="16" fill="#F3B7AC"/>
<rect x="514" y="228" width="20" height="28" fill="#8DC63F"/>
</g>
<path d="M150 70 q12 -18 24 0 q12 18 -24 36 q-36 -18 -24 -36 q12 -18 24 0 Z" fill="#E8705B"/>
<path d="M330 50 q9 -14 18 0 q9 14 -18 28 q-27 -14 -18 -28 q9 -14 18 0 Z" fill="#5B2B82"/>
<path d="M470 64 q10 -15 20 0 q10 15 -20 30 q-30 -15 -20 -30 q10 -15 20 0 Z" fill="#8DC63F"/>
<g>
<circle cx="118" cy="288" r="16" fill="#43205F"/>
<rect x="104" y="306" width="28" height="46" rx="8" fill="#5B2B82"/>
<rect x="98" y="320" width="40" height="12" rx="6" fill="#5B2B82"/>
</g>
<g>
<circle cx="186" cy="296" r="13" fill="#7A4FA0"/>
<rect x="174" y="310" width="24" height="42" rx="8" fill="#8DC63F"/>
<circle cx="220" cy="332" r="20" fill="none" stroke="#43205F" stroke-width="5"/>
<rect x="206" y="300" width="22" height="34" rx="7" fill="#E8705B"/>
<circle cx="217" cy="290" r="12" fill="#C85440"/>
<rect x="226" y="320" width="20" height="6" rx="3" fill="#43205F"/>
</g>
<g>
<circle cx="330" cy="300" r="14" fill="#B5800A"/>
<rect x="317" y="316" width="26" height="38" rx="8" fill="#2E5AAC"/>
<circle cx="368" cy="312" r="9" fill="#8A6307"/>
<rect x="359" y="324" width="18" height="28" rx="6" fill="#E8705B"/>
</g>
<g>
<circle cx="470" cy="292" r="15" fill="#43205F"/>
<rect x="456" y="309" width="28" height="44" rx="8" fill="#B5800A"/>
</g>
<g>
<circle cx="540" cy="300" r="13" fill="#7A4FA0"/>
<rect x="528" y="315" width="24" height="38" rx="8" fill="#5B2B82"/>
<line x1="552" y1="326" x2="552" y2="352" stroke="#43205F" stroke-width="4" stroke-linecap="round"/>
</g>
</svg>
