<svg viewBox="0 0 1440 420" xmlns="http://www.w3.org/2000/svg" preserveAspectRatio="xMidYMax meet" role="img" aria-hidden="true">
  <title>Ilustración decorativa de Bogotá del cuidado</title>

  <path d="M0 250 L160 150 L300 220 L460 120 L620 210 L780 130 L940 215 L1120 140 L1300 215 L1440 160 L1440 320 L0 320 Z" fill="#7A4FA0" opacity="0.85"/>
  <path d="M0 280 L200 190 L380 260 L560 180 L740 255 L920 185 L1120 255 L1320 195 L1440 250 L1440 330 L0 330 Z" fill="#5B2B82"/>

  <rect x="0" y="300" width="1440" height="120" fill="#DCEBC2"/>
  <rect x="0" y="300" width="1440" height="14" fill="#8DC63F"/>

  <path d="M250 96 q14 -20 28 0 q14 20 -28 42 q-42 -22 -28 -42 q14 -20 28 0 Z" fill="#E8705B" opacity="0.9"/>
  <path d="M690 70 q10 -16 20 0 q10 16 -20 32 q-30 -16 -20 -32 q10 -16 20 0 Z" fill="#8DC63F" opacity="0.9"/>
  <path d="M1080 90 q12 -18 24 0 q12 18 -24 38 q-36 -20 -24 -38 q12 -18 24 0 Z" fill="#F3B7AC" opacity="0.9"/>

  <g>
    <rect x="70" y="214" width="96" height="92" fill="#B5800A"/>
    <polygon points="70,214 118,180 166,214" fill="#8A6307"/>
    <rect x="90" y="238" width="22" height="22" fill="#EFE7F5"/>
    <rect x="124" y="238" width="22" height="22" fill="#EFE7F5"/>
    <rect x="102" y="272" width="28" height="34" fill="#5B2B82"/>
  </g>
  <g>
    <rect x="300" y="196" width="108" height="110" fill="#5B2B82"/>
    <polygon points="300,196 354,160 408,196" fill="#43205F"/>
    <rect x="320" y="222" width="24" height="24" fill="#F3B7AC"/>
    <rect x="362" y="222" width="24" height="24" fill="#F3B7AC"/>
    <rect x="320" y="260" width="24" height="24" fill="#F3B7AC"/>
    <rect x="358" y="260" width="34" height="46" fill="#8DC63F"/>
  </g>
  <g>
    <rect x="560" y="226" width="86" height="80" fill="#E8705B"/>
    <polygon points="560,226 603,196 646,226" fill="#C85440"/>
    <rect x="578" y="248" width="20" height="20" fill="#EFE7F5"/>
    <rect x="608" y="248" width="20" height="20" fill="#EFE7F5"/>
    <rect x="592" y="276" width="24" height="30" fill="#5B2B82"/>
  </g>
  <g>
    <rect x="780" y="206" width="100" height="100" fill="#4F7A12"/>
    <polygon points="780,206 830,176 880,206" fill="#3C5E0D"/>
    <rect x="800" y="230" width="22" height="22" fill="#EFE7F5"/>
    <rect x="836" y="230" width="22" height="22" fill="#EFE7F5"/>
    <rect x="822" y="268" width="26" height="38" fill="#B5800A"/>
  </g>
  <g>
    <rect x="1010" y="220" width="92" height="86" fill="#2E5AAC"/>
    <polygon points="1010,220 1056,190 1102,220" fill="#234584"/>
    <rect x="1028" y="244" width="20" height="20" fill="#F3B7AC"/>
    <rect x="1062" y="244" width="20" height="20" fill="#F3B7AC"/>
    <rect x="1046" y="274" width="24" height="32" fill="#8DC63F"/>
  </g>
  <g>
    <rect x="1240" y="210" width="98" height="96" fill="#B5800A"/>
    <polygon points="1240,210 1289,180 1338,210" fill="#8A6307"/>
    <rect x="1260" y="234" width="22" height="22" fill="#EFE7F5"/>
    <rect x="1296" y="234" width="22" height="22" fill="#EFE7F5"/>
    <rect x="1278" y="272" width="26" height="34" fill="#5B2B82"/>
  </g>

  <g>
    <circle cx="210" cy="338" r="18" fill="#43205F"/>
    <rect x="194" y="358" width="32" height="50" rx="9" fill="#5B2B82"/>
  </g>
  <g>
    <circle cx="430" cy="346" r="15" fill="#7A4FA0"/>
    <rect x="416" y="362" width="28" height="46" rx="9" fill="#8DC63F"/>
    <circle cx="470" cy="384" r="22" fill="none" stroke="#43205F" stroke-width="6"/>
    <rect x="454" y="350" width="26" height="38" rx="8" fill="#E8705B"/>
    <circle cx="467" cy="338" r="14" fill="#C85440"/>
    <rect x="476" y="372" width="22" height="7" rx="3" fill="#43205F"/>
  </g>
  <g>
    <circle cx="690" cy="350" r="16" fill="#B5800A"/>
    <rect x="676" y="368" width="30" height="40" rx="9" fill="#2E5AAC"/>
    <circle cx="734" cy="362" r="10" fill="#8A6307"/>
    <rect x="724" y="376" width="20" height="32" rx="7" fill="#E8705B"/>
  </g>
  <g>
    <circle cx="960" cy="342" r="17" fill="#43205F"/>
    <rect x="945" y="360" width="30" height="48" rx="9" fill="#B5800A"/>
  </g>
  <g>
    <circle cx="1150" cy="348" r="15" fill="#7A4FA0"/>
    <rect x="1136" y="364" width="28" height="44" rx="9" fill="#5B2B82"/>
  </g>
  <g>
    <circle cx="1330" cy="350" r="14" fill="#43205F"/>
    <rect x="1317" y="366" width="26" height="42" rx="9" fill="#E8705B"/>
    <line x1="1345" y1="378" x2="1345" y2="406" stroke="#43205F" stroke-width="5" stroke-linecap="round"/>
  </g>
</svg>
